<svg width="36" height="36" viewBox="0 0 36 36" fill="none" xmlns="http://www.w3.org/2000/svg">
<g filter="url(#filter0_i_408_65)">
<circle cx="18" cy="18" r="18" fill="url(#paint0_linear_408_65)"/>
<circle cx="18" cy="18" r="18" fill="url(#paint1_radial_408_65)"/>
<circle cx="18" cy="18" r="18" fill="url(#paint2_radial_408_65)"/>
</g>
<path d="M18.4846 15.6542C16.9263 15.6542 15.6547 16.9259 15.6547 18.4841C15.6547 20.0424 16.9263 21.314 18.4846 21.314C20.0429 21.314 21.3145 20.0424 21.3145 18.4841C21.3145 16.9259 20.0429 15.6542 18.4846 15.6542ZM26.9722 18.4841C26.9722 17.3122 26.9828 16.151 26.917 14.9812C26.8512 13.6225 26.5412 12.4167 25.5477 11.4231C24.552 10.4275 23.3483 10.1196 21.9896 10.0538C20.8177 9.98802 19.6565 9.99863 18.4867 9.99863C17.3148 9.99863 16.1536 9.98802 14.9838 10.0538C13.6251 10.1196 12.4193 10.4296 11.4257 11.4231C10.4301 12.4188 10.1223 13.6225 10.0564 14.9812C9.99063 16.1531 10.0012 17.3144 10.0012 18.4841C10.0012 19.6539 9.99063 20.8172 10.0564 21.987C10.1223 23.3457 10.4322 24.5515 11.4257 25.5451C12.4214 26.5408 13.6251 26.8486 14.9838 26.9144C16.1557 26.9802 17.317 26.9696 18.4867 26.9696C19.6586 26.9696 20.8199 26.9802 21.9896 26.9144C23.3483 26.8486 24.5541 26.5386 25.5477 25.5451C26.5434 24.5494 26.8512 23.3457 26.917 21.987C26.9849 20.8172 26.9722 19.656 26.9722 18.4841V18.4841ZM18.4846 22.8383C16.075 22.8383 14.1304 20.8937 14.1304 18.4841C14.1304 16.0746 16.075 14.1299 18.4846 14.1299C20.8942 14.1299 22.8388 16.0746 22.8388 18.4841C22.8388 20.8937 20.8942 22.8383 18.4846 22.8383ZM23.0171 14.9685C22.4545 14.9685 22.0002 14.5142 22.0002 13.9516C22.0002 13.389 22.4545 12.9347 23.0171 12.9347C23.5797 12.9347 24.034 13.389 24.034 13.9516C24.0342 14.0852 24.008 14.2175 23.957 14.3409C23.9059 14.4644 23.831 14.5766 23.7366 14.671C23.6421 14.7655 23.5299 14.8404 23.4065 14.8914C23.283 14.9425 23.1507 14.9687 23.0171 14.9685V14.9685Z" fill="white"/>
<defs>
<filter id="filter0_i_408_65" x="0" y="-1.52588e-05" width="36" height="36" filterUnits="userSpaceOnUse" color-interpolation-filters="sRGB">
<feFlood flood-opacity="0" result="BackgroundImageFix"/>
<feBlend mode="normal" in="SourceGraphic" in2="BackgroundImageFix" result="shape"/>
<feColorMatrix in="SourceAlpha" type="matrix" values="0 0 0 0 0 0 0 0 0 0 0 0 0 0 0 0 0 0 127 0" result="hardAlpha"/>
<feOffset/>
<feGaussianBlur stdDeviation="10.5"/>
<feComposite in2="hardAlpha" operator="arithmetic" k2="-1" k3="1"/>
<feColorMatrix type="matrix" values="0 0 0 0 1 0 0 0 0 1 0 0 0 0 1 0 0 0 0.32 0"/>
<feBlend mode="normal" in2="shape" result="effect1_innerShadow_408_65"/>
</filter>
<linearGradient id="paint0_linear_408_65" x1="6.89362" y1="-1.51228e-05" x2="29.4894" y2="33.7021" gradientUnits="userSpaceOnUse">
<stop stop-color="#7B1AE8"/>
<stop offset="0.447915" stop-color="#E131BA"/>
<stop offset="1" stop-color="#CD358B"/>
</linearGradient>
<radialGradient id="paint1_radial_408_65" cx="0" cy="0" r="1" gradientUnits="userSpaceOnUse" gradientTransform="translate(6.51064 32.1702) rotate(-50.5275) scale(25.3027)">
<stop stop-color="#ECB43E"/>
<stop offset="1" stop-color="#ECB43E" stop-opacity="0"/>
</radialGradient>
<radialGradient id="paint2_radial_408_65" cx="0" cy="0" r="1" gradientUnits="userSpaceOnUse" gradientTransform="translate(36 15.7021) rotate(153.905) scale(20.896)">
<stop stop-color="#E33164"/>
<stop offset="1" stop-color="#E33164" stop-opacity="0"/>
</radialGradient>
</defs>
</svg>
