<svg width="74" height="56" viewBox="0 0 74 56" fill="none" xmlns="http://www.w3.org/2000/svg">
<g clip-path="url(#clip0_30_15063)">
<path fill-rule="evenodd" clip-rule="evenodd" d="M44.2364 16.6826C48.7889 14.7368 54.1159 13.7281 60.222 13.6588V35.0481C50.5181 35.1581 42.7766 37.6393 36.9999 42.4894C31.2209 37.6393 23.4818 35.1605 13.7778 35.0481V0C23.4818 0.109959 31.2233 2.5912 36.9999 7.44133C42.779 2.5912 50.5181 0.109959 60.222 0V7.62061C54.1159 7.68993 48.7889 8.69868 44.2364 10.6445V16.6826ZM36.9999 15.0595C32.8442 11.5719 27.6736 9.31062 21.4881 8.27319V28.441C27.6736 29.4785 32.8442 31.7398 36.9999 35.2274C41.1557 31.7398 46.3263 29.4785 52.5118 28.441V21.5854C46.3263 22.6228 41.1557 24.8841 36.9999 28.3717V15.0595Z" fill="#312D2D"/>
<path fill-rule="evenodd" clip-rule="evenodd" d="M40.5135 32.7151L45.1719 37.6895C49.5128 35.9947 54.5295 35.115 60.2196 35.0505V13.6612C54.1135 13.7305 48.7865 14.7392 44.234 16.685V10.6421C48.7865 8.69629 54.1135 7.68754 60.2196 7.61822V0C48.5 0 44.234 0 36.9975 7.44133C31.2209 2.5912 23.4794 0.109959 13.7778 0L21.4881 8.27319C27.5 10 32.5 12 36.9999 15.0595V28.3717C41.1557 24.8841 46.3263 22.6228 52.5118 21.5854V28.4434C47.9641 29.2036 43.9646 30.6283 40.5135 32.7151Z" fill="#3AABE2"/>
<path fill-rule="evenodd" clip-rule="evenodd" d="M4.04992 51.1499C4.34573 51.1499 4.60546 51.1092 4.82431 51.028C5.04316 50.9467 5.23555 50.8558 5.39909 50.7531C5.56263 50.6503 5.69971 50.5594 5.81274 50.4782C5.92577 50.3969 6.02678 50.3563 6.12057 50.3563C6.35626 50.3563 6.4741 50.5092 6.4741 50.8128C6.4741 50.8845 6.45967 50.9825 6.4284 51.1092C6.39714 51.2359 6.35626 51.3674 6.30575 51.506C6.25525 51.6423 6.19993 51.7738 6.14462 51.8957C6.08931 52.0176 6.03399 52.1084 5.98349 52.1706C5.93299 52.2208 5.844 52.302 5.71414 52.4144C5.58668 52.5267 5.41592 52.6391 5.19948 52.749C4.98544 52.8614 4.73292 52.9594 4.44673 53.0455C4.16055 53.1315 3.84309 53.1745 3.49438 53.1745C3.10478 53.1745 2.70315 53.1172 2.2895 53C1.87585 52.8829 1.49828 52.6797 1.16159 52.3905C0.824894 52.1012 0.545921 51.7092 0.324667 51.2168C0.110627 50.7268 0 50.1077 0 49.3666C0 49.1013 0.0168346 48.8001 0.0529087 48.4583C0.0889828 48.1188 0.163536 47.7674 0.274163 47.4065C0.387195 47.0455 0.538707 46.6894 0.726292 46.338C0.916282 45.9866 1.1688 45.6734 1.48625 45.4009C1.8037 45.1284 2.18369 44.9061 2.6286 44.7364C3.07351 44.5691 3.6026 44.4854 4.21586 44.4854C4.71609 44.4854 5.14898 44.5428 5.51212 44.6599C5.87527 44.777 6.17348 44.9348 6.40916 45.1332C6.64485 45.3316 6.82041 45.5635 6.93825 45.8264C7.05609 46.0918 7.11381 46.3762 7.11381 46.6798C7.11381 47.2296 6.94066 47.6336 6.59194 47.8917C6.24322 48.1499 5.75262 48.2814 5.12012 48.2814C4.9662 48.2814 4.86279 48.2694 4.80507 48.2431C4.74976 48.2168 4.7209 48.1595 4.7209 48.0686C4.7209 47.8248 4.71609 47.6049 4.70647 47.4137C4.69685 47.22 4.66799 47.0575 4.62229 46.926C4.5766 46.7945 4.50686 46.6918 4.41547 46.6201C4.32408 46.5483 4.18941 46.5125 4.01625 46.5125C3.6988 46.5125 3.44628 46.6153 3.25629 46.8185C3.0663 47.0216 2.92441 47.2678 2.8258 47.5571C2.72961 47.8463 2.66708 48.1451 2.64062 48.4487C2.61417 48.7547 2.60214 49.0081 2.60214 49.2112C2.60214 49.9332 2.71758 50.4375 2.94846 50.722C3.18414 51.0088 3.54969 51.1499 4.04992 51.1499ZM12.0752 53.1793C11.3706 53.1793 10.7838 53.0813 10.3196 52.8829C9.85304 52.6845 9.48268 52.412 9.20611 52.0678C8.92954 51.7212 8.73474 51.3172 8.62411 50.8558C8.51108 50.3921 8.45577 49.8973 8.45577 49.369C8.45577 48.7595 8.53032 48.1619 8.67702 47.5762C8.82613 46.9906 9.07865 46.4695 9.43698 46.0129C9.79532 45.5563 10.2691 45.1858 10.8559 44.9061C11.4451 44.6265 12.1786 44.4878 13.0588 44.4878C14.3479 44.4878 15.2714 44.801 15.8293 45.4248C16.3873 46.0511 16.6662 46.926 16.6662 48.0567C16.6662 48.3722 16.6422 48.7212 16.5965 49.1013C16.5508 49.4838 16.4642 49.8614 16.3368 50.2367C16.2093 50.612 16.0361 50.9778 15.8149 51.3339C15.596 51.6901 15.3171 52.0056 14.978 52.2805C14.6413 52.5554 14.2348 52.773 13.7587 52.9355C13.2801 53.098 12.7197 53.1793 12.0752 53.1793ZM12.7967 46.5149C12.4071 46.5149 12.0993 46.6129 11.8684 46.8113C11.6375 47.0097 11.4643 47.2487 11.3465 47.5284C11.2287 47.8081 11.1517 48.1021 11.1156 48.4129C11.0796 48.7236 11.0627 48.9842 11.0627 49.1993C11.0627 49.871 11.1709 50.3634 11.385 50.679C11.599 50.9945 11.9069 51.1523 12.3061 51.1523C12.6644 51.1523 12.9578 51.0399 13.1887 50.8176C13.4196 50.5929 13.5975 50.3252 13.725 50.0096C13.8525 49.6941 13.939 49.3642 13.9847 49.0176C14.0304 48.671 14.0545 48.3818 14.0545 48.1475C14.0545 47.6384 13.9607 47.2392 13.7707 46.9499C13.5807 46.6583 13.256 46.5149 12.7967 46.5149ZM21.909 53.1793C21.2044 53.1793 20.6175 53.0813 20.1534 52.8829C19.6868 52.6845 19.3165 52.412 19.0399 52.0678C18.7633 51.7212 18.5685 51.3172 18.4579 50.8558C18.3449 50.3921 18.2896 49.8973 18.2896 49.369C18.2896 48.7595 18.3641 48.1619 18.5132 47.5762C18.6623 46.9906 18.9149 46.4695 19.2732 46.0129C19.6315 45.5563 20.1053 45.1858 20.6921 44.9061C21.2813 44.6265 22.0148 44.4878 22.895 44.4878C24.1841 44.4878 25.1076 44.801 25.6655 45.4248C26.2235 46.0511 26.5024 46.926 26.5024 48.0567C26.5024 48.3722 26.4784 48.7212 26.4327 49.1013C26.387 49.4838 26.3004 49.8614 26.173 50.2367C26.0455 50.612 25.8723 50.9778 25.6511 51.3339C25.4322 51.6901 25.1533 52.0056 24.8142 52.2805C24.4775 52.5554 24.071 52.773 23.5949 52.9355C23.1139 53.098 22.5535 53.1793 21.909 53.1793ZM22.6305 46.5149C22.2409 46.5149 21.9331 46.6129 21.7022 46.8113C21.4713 47.0097 21.2981 47.2487 21.1803 47.5284C21.0625 47.8081 20.9855 48.1021 20.9494 48.4129C20.9134 48.7236 20.8965 48.9842 20.8965 49.1993C20.8965 49.871 21.0047 50.3634 21.2188 50.679C21.4328 50.9945 21.7407 51.1523 22.1399 51.1523C22.4982 51.1523 22.7916 51.0399 23.0225 50.8176C23.2534 50.5929 23.4313 50.3252 23.5588 50.0096C23.6863 49.6941 23.7728 49.3642 23.8185 49.0176C23.8642 48.671 23.8883 48.3818 23.8883 48.1475C23.8883 47.6384 23.7945 47.2392 23.6045 46.9499C23.4169 46.6583 23.0922 46.5149 22.6305 46.5149ZM30.0882 53.1626C29.4533 53.1626 28.9988 52.9953 28.7222 52.6582C28.4456 52.3236 28.3085 51.769 28.3085 50.9969C28.3085 50.875 28.3158 50.722 28.3326 50.5403C28.347 50.3563 28.3687 50.122 28.3951 49.8304C28.4216 49.5411 28.4528 49.1826 28.4937 48.7547C28.5346 48.3268 28.5779 47.8081 28.6236 47.1985C28.6693 46.589 28.7198 45.8719 28.7775 45.0472C28.8328 44.2225 28.8929 43.2687 28.9531 42.1811C28.9627 41.9564 28.9891 41.8249 29.03 41.7843C29.0613 41.7532 29.1431 41.7388 29.2753 41.7388H29.8742C30.182 41.7388 30.4369 41.7747 30.6413 41.8464C30.8458 41.9181 31.0093 42.0137 31.1319 42.1357C31.2546 42.2576 31.3412 42.3986 31.3917 42.554C31.4422 42.7117 31.4686 42.8767 31.4686 43.0488C31.4686 43.252 31.4566 43.5436 31.4302 43.9261C31.4037 44.3085 31.3724 44.7364 31.3316 45.2145C31.2907 45.6926 31.2498 46.1898 31.2089 46.7085C31.168 47.2272 31.1271 47.722 31.0863 48.1953C31.0454 48.6686 31.0117 49.0917 30.9877 49.4694C30.9612 49.8447 30.9492 50.1292 30.9492 50.3228C30.9492 50.5881 30.9973 50.7746 31.0959 50.8869C31.1921 50.9993 31.2979 51.0782 31.4109 51.1236C31.524 51.169 31.6274 51.2001 31.726 51.2144C31.8222 51.2288 31.8727 51.2622 31.8727 51.3124C31.8727 51.5371 31.8462 51.757 31.7957 51.9769C31.7452 52.1945 31.6514 52.3929 31.5191 52.5722C31.3869 52.749 31.2041 52.8925 30.9756 53C30.7399 53.11 30.4465 53.1626 30.0882 53.1626Z" fill="#3AABE2"/>
<path fill-rule="evenodd" clip-rule="evenodd" d="M37.1755 44.4854C38.0437 44.4854 38.6834 44.6551 39.0923 44.997C39.5011 45.3364 39.7055 45.7715 39.7055 46.2997C39.7055 46.7467 39.566 47.0886 39.2846 47.3204C39.0033 47.5523 38.5968 47.6718 38.0653 47.6718C37.921 47.6718 37.8249 47.6575 37.7743 47.6264C37.7238 47.5953 37.6974 47.5404 37.6974 47.4591C37.6974 47.3682 37.6902 47.2631 37.6733 47.1459C37.6589 47.0288 37.6228 46.9165 37.5651 46.8113C37.5098 46.7037 37.4208 46.6153 37.3054 46.5436C37.1875 46.4719 37.0216 46.436 36.8076 46.436C36.5214 46.436 36.2905 46.5053 36.1173 46.6416C35.9442 46.7778 35.8576 46.9499 35.8576 47.1531C35.8576 47.3659 35.9466 47.538 36.127 47.6647C36.3049 47.7914 36.531 47.9109 36.8027 48.0232C37.0745 48.1356 37.3679 48.2503 37.6854 48.3674C38.0028 48.4846 38.2962 48.6399 38.568 48.8336C38.8397 49.0272 39.0634 49.2686 39.2438 49.5579C39.4217 49.8471 39.5131 50.2224 39.5131 50.679C39.5131 51.4104 39.2534 52.0104 38.7315 52.4789C38.2096 52.9475 37.428 53.1793 36.3843 53.1793C36.0981 53.1793 35.7686 53.1554 35.3959 53.11C35.0231 53.0646 34.6672 52.9929 34.3305 52.8973C33.9938 52.8016 33.71 52.6702 33.4791 52.5076C33.2483 52.3451 33.1328 52.1419 33.1328 51.8981C33.1328 51.8072 33.1496 51.6949 33.1857 51.5634C33.2218 51.4319 33.2771 51.3052 33.3541 51.1809C33.431 51.059 33.5224 50.9539 33.6306 50.8678C33.7389 50.7817 33.8687 50.7387 34.0226 50.7387C34.1453 50.7387 34.2583 50.7698 34.3593 50.8296C34.4627 50.8917 34.5806 50.9539 34.7201 51.0208C34.8572 51.0877 35.0303 51.1499 35.2347 51.212C35.4391 51.2742 35.7109 51.3029 36.0476 51.3029C36.3025 51.3029 36.531 51.2718 36.7306 51.212C36.9302 51.1499 37.0288 51.0136 37.0288 50.8009C37.0288 50.6072 36.947 50.4519 36.7835 50.3347C36.62 50.2176 36.4131 50.1077 36.163 50.0073C35.9129 49.9045 35.6412 49.7969 35.3502 49.6798C35.0592 49.5626 34.7874 49.4073 34.5373 49.2136C34.2872 49.02 34.0804 48.7738 33.9168 48.475C33.7533 48.1762 33.6715 47.7866 33.6715 47.3085C33.6715 46.7898 33.7773 46.3499 33.9866 45.989C34.1958 45.628 34.4676 45.3364 34.7994 45.1117C35.1313 44.887 35.5089 44.7269 35.9274 44.6312C36.3362 44.5356 36.7571 44.4854 37.1755 44.4854ZM44.7703 46.6965C44.7391 47.0838 44.7054 47.4639 44.6717 47.8392C44.6356 48.2145 44.602 48.5706 44.5731 48.9077C44.5418 49.2423 44.5202 49.5435 44.5034 49.8065C44.4889 50.0718 44.4793 50.275 44.4793 50.416C44.4793 50.6814 44.5106 50.8559 44.5707 50.9419C44.6332 51.028 44.7342 51.071 44.8785 51.071C44.9916 51.071 45.0878 51.0495 45.1695 51.0088C45.2513 50.9682 45.3283 50.9228 45.4004 50.8726C45.4726 50.8224 45.5351 50.777 45.5928 50.7363C45.6481 50.6957 45.7131 50.6742 45.7852 50.6742C45.8573 50.6742 45.9223 50.7148 45.9848 50.7961C46.0473 50.8774 46.0762 51.0662 46.0762 51.3602C46.0762 51.9196 45.9223 52.3618 45.6169 52.6869C45.309 53.012 44.7823 53.1745 44.0368 53.1745C43.3009 53.1745 42.755 53.0048 42.4039 52.663C42.0503 52.3236 41.8748 51.8025 41.8748 51.0997C41.8748 50.9467 41.882 50.7674 41.8988 50.5594C41.9132 50.3515 41.9373 50.079 41.9686 49.7443C41.9998 49.4097 42.0383 48.9961 42.084 48.5085C42.1297 48.0208 42.1778 47.4161 42.2307 46.6942H41.4178C41.3361 46.6942 41.288 46.6774 41.2711 46.6416C41.2567 46.6057 41.2471 46.5531 41.2471 46.4814L41.2928 45.7045C41.3024 45.5731 41.3216 45.4416 41.3457 45.3149C41.3721 45.1882 41.4226 45.0735 41.4996 44.9707C41.5766 44.8679 41.6872 44.7866 41.8291 44.7269C41.9734 44.6647 42.161 44.636 42.3966 44.636C42.4688 44.452 42.5506 44.2344 42.6419 43.981C42.7333 43.7277 42.8271 43.4815 42.9185 43.2424C43.0099 43.0034 43.0989 42.8026 43.1879 42.64C43.2744 42.4775 43.3538 42.3962 43.426 42.3962H43.8709C44.3014 42.3962 44.5972 42.5277 44.7607 42.793C44.9242 43.0584 45.006 43.3715 45.006 43.7396C45.006 43.9428 44.9916 44.244 44.9603 44.6384H46.5716C46.7351 44.6384 46.8169 44.7101 46.8169 44.8512L46.7544 45.6735C46.7327 45.9794 46.6486 46.2256 46.5019 46.4121C46.3528 46.6009 46.0497 46.6942 45.588 46.6942H44.7703V46.6965ZM51.5835 53.1793C50.8789 53.1793 50.2921 53.0813 49.8279 52.8829C49.3613 52.6845 48.991 52.412 48.7144 52.0678C48.4378 51.7212 48.243 51.3172 48.1324 50.8559C48.0194 50.3921 47.9641 49.8973 47.9641 49.369C47.9641 48.7595 48.0386 48.1619 48.1853 47.5762C48.3344 46.9906 48.587 46.4695 48.9453 46.0129C49.3036 45.5563 49.7774 45.1858 50.3642 44.9061C50.9534 44.6265 51.6869 44.4878 52.5647 44.4878C53.8538 44.4878 54.7773 44.801 55.3352 45.4249C55.8932 46.0511 56.1721 46.926 56.1721 48.0567C56.1721 48.3722 56.1481 48.7212 56.1024 49.1013C56.0567 49.4838 55.9701 49.8614 55.8427 50.2367C55.7152 50.612 55.542 50.9778 55.3208 51.3339C55.1019 51.6901 54.823 52.0056 54.4839 52.2805C54.1472 52.5554 53.7407 52.773 53.2646 52.9355C52.7884 53.098 52.228 53.1793 51.5835 53.1793ZM52.305 46.5149C51.9154 46.5149 51.6076 46.6129 51.3767 46.8113C51.1458 47.0097 50.9727 47.2487 50.8548 47.5284C50.737 47.8081 50.66 48.1021 50.6239 48.4129C50.5879 48.7236 50.571 48.9842 50.571 49.1993C50.571 49.871 50.6793 50.3634 50.8933 50.679C51.1073 50.9945 51.4152 51.1523 51.8144 51.1523C52.1727 51.1523 52.4661 51.0399 52.697 50.8176C52.9279 50.5929 53.1058 50.3252 53.2333 50.0096C53.3608 49.6941 53.4473 49.3642 53.493 49.0176C53.5387 48.671 53.5628 48.3818 53.5628 48.1475C53.5628 47.6384 53.469 47.2392 53.279 46.9499C53.089 46.6583 52.7643 46.5149 52.305 46.5149ZM62.9372 48.2838C62.8747 48.2838 62.8074 48.2814 62.7304 48.2766C62.6534 48.2718 62.5789 48.2623 62.5092 48.2455C62.437 48.2312 62.3769 48.2097 62.324 48.1834C62.2735 48.1571 62.247 48.126 62.247 48.0854C62.247 47.9539 62.2518 47.832 62.2614 47.7196C62.2711 47.6073 62.2759 47.4902 62.2759 47.3683C62.2759 47.1436 62.2446 46.9619 62.1845 46.8185C62.1244 46.675 61.9993 46.6057 61.8165 46.6057C61.5303 46.6057 61.2923 46.7922 61.1023 47.1627C60.9123 47.5332 60.792 48.0902 60.7415 48.8336C60.7223 49.1587 60.6934 49.5268 60.6573 49.9403C60.6213 50.3515 60.5876 50.7483 60.5587 51.1307C60.5275 51.5108 60.5034 51.8503 60.4818 52.1443C60.4601 52.4383 60.4505 52.6319 60.4505 52.7228C60.4505 52.8255 60.4144 52.8996 60.3423 52.9522C60.2702 53.0024 60.1932 53.0287 60.1114 53.0287H59.5583C59.2408 53.0287 58.9835 52.9953 58.7839 52.9307C58.5843 52.8638 58.4256 52.7706 58.3077 52.6487C58.1899 52.5267 58.1081 52.3761 58.0624 52.1993C58.0167 52.0224 57.9927 51.8144 57.9927 51.5825C57.9927 51.4295 57.9999 51.2144 58.0167 50.9347C58.0312 50.6551 58.06 50.2678 58.1009 49.7754C58.1418 49.283 58.1899 48.6567 58.2476 47.8989C58.3029 47.1412 58.3727 46.2041 58.4544 45.0854C58.4761 44.7914 58.5819 44.6432 58.7767 44.6432H59.3755C59.6617 44.6432 59.9022 44.6743 60.097 44.734C60.2918 44.7962 60.4505 44.8798 60.5732 44.985C60.6958 45.0926 60.7848 45.2169 60.8425 45.3579C60.8978 45.5013 60.9363 45.6472 60.958 45.8001C61.0806 45.5659 61.2273 45.3651 61.3957 45.1978C61.564 45.0304 61.742 44.8918 61.9247 44.7866C62.1099 44.679 62.2975 44.6026 62.4923 44.5571C62.6871 44.5117 62.8651 44.4878 63.0286 44.4878C63.2234 44.4878 63.4206 44.5237 63.6202 44.5954C63.8198 44.6671 64.0002 44.7723 64.1637 44.9157C64.3273 45.0591 64.4571 45.2408 64.5558 45.4655C64.6519 45.6902 64.7025 45.9531 64.7025 46.2591C64.7025 46.534 64.6616 46.7922 64.5798 47.036C64.498 47.2798 64.3802 47.4949 64.2263 47.6838C64.0724 47.8726 63.8872 48.0184 63.6659 48.126C63.4447 48.2312 63.2018 48.2838 62.9372 48.2838ZM68.9207 46.0416C68.9207 46.2758 68.9063 46.5531 68.875 46.8734C68.8438 47.1937 68.8101 47.5141 68.7764 47.8344C68.7404 48.1547 68.7067 48.4535 68.6778 48.7332C68.6466 49.0128 68.6321 49.228 68.6321 49.381C68.6321 49.7682 68.7259 50.0551 68.9159 50.2415C69.1059 50.4304 69.3368 50.5236 69.6133 50.5236C70.0943 50.5236 70.4767 50.275 70.7629 49.7754C71.0491 49.2782 71.2271 48.616 71.2992 47.7937L71.5445 44.942C71.5541 44.8296 71.5926 44.7508 71.6599 44.7053C71.7273 44.6599 71.7994 44.636 71.8812 44.636H72.4343C72.6484 44.636 72.8504 44.6528 73.0404 44.6886C73.2304 44.7245 73.3963 44.7914 73.5382 44.887C73.6825 44.9826 73.7931 45.1141 73.8749 45.2766C73.9567 45.4392 73.9975 45.6472 73.9975 45.9029C73.9975 46.0057 73.9903 46.1946 73.9735 46.4742C73.9591 46.7539 73.9326 47.1555 73.8965 47.679C73.8605 48.2025 73.8124 48.8646 73.7498 49.6606C73.6873 50.459 73.6176 51.4319 73.5358 52.5817C73.4853 53.2534 73.3338 53.8104 73.0837 54.2526C72.8336 54.6948 72.5185 55.0462 72.1409 55.3044C71.7634 55.5626 71.3377 55.7442 70.8663 55.8446C70.395 55.9474 69.914 55.9976 69.4234 55.9976C68.9015 55.9976 68.4229 55.9522 67.9876 55.8614C67.5523 55.7705 67.1771 55.6438 66.8597 55.4789C66.5422 55.3163 66.2945 55.1275 66.1166 54.9148C65.9386 54.702 65.8472 54.4725 65.8472 54.2287C65.8472 54.0351 65.8905 53.8678 65.9771 53.7243C66.0636 53.5809 66.1791 53.4662 66.3234 53.3729C66.4677 53.2821 66.6336 53.2128 66.8212 53.1674C67.0112 53.122 67.2084 53.0981 67.4128 53.0981C67.5162 53.0981 67.5884 53.1482 67.6341 53.251C67.6798 53.3538 67.7519 53.4662 67.8481 53.5953C67.9443 53.7219 68.1006 53.8367 68.3171 53.9395C68.5311 54.0423 68.8534 54.0925 69.2839 54.0925C69.6614 54.0925 69.9693 54.0016 70.205 53.8176C70.4406 53.6335 70.621 53.4016 70.7485 53.1172C70.8759 52.8327 70.9601 52.522 71.001 52.1873C71.0419 51.8527 71.0635 51.5323 71.0635 51.2264C70.9 51.5108 70.7172 51.7427 70.52 51.9196C70.3204 52.0965 70.1136 52.2351 69.8995 52.3307C69.6855 52.4263 69.469 52.4909 69.255 52.522C69.041 52.553 68.8365 52.5674 68.6418 52.5674C68.2642 52.5674 67.9179 52.5172 67.6052 52.4144C67.2926 52.3116 67.0256 52.1467 66.7996 51.9196C66.5735 51.6901 66.4003 51.3937 66.2777 51.028C66.155 50.6622 66.0925 50.22 66.0925 49.7013C66.0925 49.5077 66.1021 49.2519 66.1238 48.9316C66.143 48.6113 66.1695 48.2503 66.2007 47.8487C66.232 47.4471 66.2657 47.0121 66.2993 46.546C66.3354 46.0774 66.3739 45.5994 66.4148 45.1117C66.4364 44.7962 66.5783 44.6384 66.8453 44.6384H67.3359C67.6629 44.6384 67.9299 44.6695 68.1343 44.7292C68.3387 44.7914 68.4999 44.8798 68.6177 44.997C68.7355 45.1141 68.8149 45.2623 68.8558 45.4392C68.8991 45.6185 68.9207 45.8193 68.9207 46.0416Z" fill="#312D2D"/>
</g>
<defs>
<clipPath id="clip0_30_15063">
<rect width="74" height="56" fill="white"/>
</clipPath>
</defs>
</svg>
