<svg width="74" height="56" viewBox="0 0 74 56" fill="none" xmlns="http://www.w3.org/2000/svg">
<g clip-path="url(#clip0_100_63)">
<path fill-rule="evenodd" clip-rule="evenodd" d="M44.2364 16.6826C48.7889 14.7368 54.1159 13.7281 60.222 13.6588V35.0481C50.5181 35.1581 42.7766 37.6393 36.9999 42.4894C31.2209 37.6393 23.4818 35.1605 13.7778 35.0481V0C23.4818 0.109959 31.2233 2.5912 36.9999 7.44133C42.779 2.5912 50.5181 0.109959 60.222 0V7.62061C54.1159 7.68993 48.7889 8.69868 44.2364 10.6445V16.6826ZM36.9999 15.0595C32.8442 11.5719 27.6736 9.31062 21.4881 8.27319V28.441C27.6736 29.4785 32.8442 31.7398 36.9999 35.2274C41.1557 31.7398 46.3263 29.4785 52.5118 28.441V21.5854C46.3263 22.6228 41.1557 24.8841 36.9999 28.3717V15.0595Z" fill="white"/>
<path fill-rule="evenodd" clip-rule="evenodd" d="M40.5135 32.7151L45.1719 37.6895C49.5128 35.9947 54.5295 35.115 60.2196 35.0505V13.6612C54.1135 13.7305 48.7865 14.7392 44.234 16.685V10.6421C48.7865 8.69629 54.1135 7.68754 60.2196 7.61822V0C48.5 0 44.234 0 36.9975 7.44133C31.2209 2.5912 23.4794 0.109959 13.7778 0L21.4881 8.27319C27.5 10 32.5 12 36.9999 15.0595V28.3717C41.1557 24.8841 46.3263 22.6228 52.5118 21.5854V28.4434C47.9641 29.2036 43.9646 30.6283 40.5135 32.7151Z" fill="#3AABE2"/>
<path fill-rule="evenodd" clip-rule="evenodd" d="M4.04992 51.1503C4.34573 51.1503 4.60546 51.1096 4.82431 51.0284C5.04316 50.9471 5.23555 50.8563 5.39909 50.7535C5.56263 50.6507 5.69971 50.5598 5.81274 50.4786C5.92577 50.3973 6.02678 50.3567 6.12057 50.3567C6.35626 50.3567 6.4741 50.5097 6.4741 50.8132C6.4741 50.8849 6.45967 50.983 6.4284 51.1096C6.39714 51.2363 6.35626 51.3678 6.30575 51.5064C6.25525 51.6427 6.19993 51.7742 6.14462 51.8961C6.08931 52.018 6.03399 52.1088 5.98349 52.171C5.93299 52.2212 5.844 52.3025 5.71414 52.4148C5.58668 52.5272 5.41592 52.6395 5.19948 52.7495C4.98544 52.8618 4.73292 52.9598 4.44673 53.0459C4.16055 53.1319 3.84309 53.175 3.49438 53.175C3.10478 53.175 2.70315 53.1176 2.2895 53.0005C1.87585 52.8833 1.49828 52.6801 1.16159 52.3909C0.824894 52.1017 0.545921 51.7096 0.324667 51.2172C0.110627 50.7272 0 50.1081 0 49.367C0 49.1017 0.0168346 48.8005 0.0529087 48.4587C0.0889828 48.1192 0.163536 47.7679 0.274163 47.4069C0.387195 47.046 0.538707 46.6898 0.726292 46.3384C0.916282 45.987 1.1688 45.6739 1.48625 45.4014C1.8037 45.1288 2.18369 44.9065 2.6286 44.7368C3.07351 44.5695 3.6026 44.4858 4.21586 44.4858C4.71609 44.4858 5.14898 44.5432 5.51212 44.6603C5.87527 44.7775 6.17348 44.9352 6.40916 45.1336C6.64485 45.332 6.82041 45.5639 6.93825 45.8269C7.05609 46.0922 7.11381 46.3766 7.11381 46.6802C7.11381 47.23 6.94066 47.634 6.59194 47.8922C6.24322 48.1503 5.75262 48.2818 5.12012 48.2818C4.9662 48.2818 4.86279 48.2698 4.80507 48.2435C4.74976 48.2173 4.7209 48.1599 4.7209 48.069C4.7209 47.8252 4.71609 47.6053 4.70647 47.4141C4.69685 47.2205 4.66799 47.0579 4.62229 46.9264C4.5766 46.795 4.50686 46.6922 4.41547 46.6205C4.32408 46.5488 4.18941 46.5129 4.01625 46.5129C3.6988 46.5129 3.44628 46.6157 3.25629 46.8189C3.0663 47.0221 2.92441 47.2683 2.8258 47.5575C2.72961 47.8467 2.66708 48.1455 2.64062 48.4491C2.61417 48.7551 2.60214 49.0085 2.60214 49.2117C2.60214 49.9336 2.71758 50.4379 2.94846 50.7224C3.18414 51.0092 3.54969 51.1503 4.04992 51.1503ZM12.0752 53.1797C11.3706 53.1797 10.7838 53.0817 10.3196 52.8833C9.85304 52.6849 9.48268 52.4124 9.20611 52.0682C8.92954 51.7216 8.73474 51.3176 8.62411 50.8563C8.51108 50.3925 8.45577 49.8977 8.45577 49.3694C8.45577 48.7599 8.53032 48.1623 8.67702 47.5766C8.82613 46.991 9.07865 46.4699 9.43698 46.0133C9.79532 45.5567 10.2691 45.1862 10.8559 44.9065C11.4451 44.6269 12.1786 44.4882 13.0588 44.4882C14.3479 44.4882 15.2714 44.8014 15.8293 45.4253C16.3873 46.0515 16.6662 46.9264 16.6662 48.0571C16.6662 48.3726 16.6422 48.7216 16.5965 49.1017C16.5508 49.4842 16.4642 49.8619 16.3368 50.2371C16.2093 50.6124 16.0361 50.9782 15.8149 51.3343C15.596 51.6905 15.3171 52.006 14.978 52.2809C14.6413 52.5558 14.2348 52.7734 13.7587 52.9359C13.2801 53.0985 12.7197 53.1797 12.0752 53.1797ZM12.7967 46.5153C12.4071 46.5153 12.0993 46.6133 11.8684 46.8117C11.6375 47.0101 11.4643 47.2491 11.3465 47.5288C11.2287 47.8085 11.1517 48.1025 11.1156 48.4133C11.0796 48.724 11.0627 48.9846 11.0627 49.1997C11.0627 49.8714 11.1709 50.3638 11.385 50.6794C11.599 50.9949 11.9069 51.1527 12.3061 51.1527C12.6644 51.1527 12.9578 51.0403 13.1887 50.818C13.4196 50.5933 13.5975 50.3256 13.725 50.0101C13.8525 49.6945 13.939 49.3646 13.9847 49.018C14.0304 48.6714 14.0545 48.3822 14.0545 48.1479C14.0545 47.6388 13.9607 47.2396 13.7707 46.9503C13.5807 46.6587 13.256 46.5153 12.7967 46.5153ZM21.909 53.1797C21.2044 53.1797 20.6175 53.0817 20.1534 52.8833C19.6868 52.6849 19.3165 52.4124 19.0399 52.0682C18.7633 51.7216 18.5685 51.3176 18.4579 50.8563C18.3449 50.3925 18.2896 49.8977 18.2896 49.3694C18.2896 48.7599 18.3641 48.1623 18.5132 47.5766C18.6623 46.991 18.9149 46.4699 19.2732 46.0133C19.6315 45.5567 20.1053 45.1862 20.6921 44.9065C21.2813 44.6269 22.0148 44.4882 22.895 44.4882C24.1841 44.4882 25.1076 44.8014 25.6655 45.4253C26.2235 46.0515 26.5024 46.9264 26.5024 48.0571C26.5024 48.3726 26.4784 48.7216 26.4327 49.1017C26.387 49.4842 26.3004 49.8619 26.173 50.2371C26.0455 50.6124 25.8723 50.9782 25.6511 51.3343C25.4322 51.6905 25.1533 52.006 24.8142 52.2809C24.4775 52.5558 24.071 52.7734 23.5949 52.9359C23.1139 53.0985 22.5535 53.1797 21.909 53.1797ZM22.6305 46.5153C22.2409 46.5153 21.9331 46.6133 21.7022 46.8117C21.4713 47.0101 21.2981 47.2491 21.1803 47.5288C21.0625 47.8085 20.9855 48.1025 20.9494 48.4133C20.9134 48.724 20.8965 48.9846 20.8965 49.1997C20.8965 49.8714 21.0047 50.3638 21.2188 50.6794C21.4328 50.9949 21.7407 51.1527 22.1399 51.1527C22.4982 51.1527 22.7916 51.0403 23.0225 50.818C23.2534 50.5933 23.4313 50.3256 23.5588 50.0101C23.6863 49.6945 23.7728 49.3646 23.8185 49.018C23.8642 48.6714 23.8883 48.3822 23.8883 48.1479C23.8883 47.6388 23.7945 47.2396 23.6045 46.9503C23.4169 46.6587 23.0922 46.5153 22.6305 46.5153ZM30.0882 53.163C29.4533 53.163 28.9988 52.9957 28.7222 52.6586C28.4456 52.324 28.3085 51.7694 28.3085 50.9973C28.3085 50.8754 28.3158 50.7224 28.3326 50.5407C28.347 50.3567 28.3687 50.1224 28.3951 49.8308C28.4216 49.5415 28.4528 49.183 28.4937 48.7551C28.5346 48.3272 28.5779 47.8085 28.6236 47.1989C28.6693 46.5894 28.7198 45.8723 28.7775 45.0476C28.8328 44.2229 28.8929 43.2691 28.9531 42.1815C28.9627 41.9568 28.9891 41.8253 29.03 41.7847C29.0613 41.7536 29.1431 41.7393 29.2753 41.7393H29.8742C30.182 41.7393 30.4369 41.7751 30.6413 41.8468C30.8458 41.9185 31.0093 42.0142 31.1319 42.1361C31.2546 42.258 31.3412 42.399 31.3917 42.5544C31.4422 42.7122 31.4686 42.8771 31.4686 43.0492C31.4686 43.2524 31.4566 43.544 31.4302 43.9265C31.4037 44.3089 31.3724 44.7368 31.3316 45.2149C31.2907 45.693 31.2498 46.1902 31.2089 46.7089C31.168 47.2276 31.1271 47.7224 31.0863 48.1957C31.0454 48.669 31.0117 49.0921 30.9877 49.4698C30.9612 49.8451 30.9492 50.1296 30.9492 50.3232C30.9492 50.5885 30.9973 50.775 31.0959 50.8873C31.1921 50.9997 31.2979 51.0786 31.4109 51.124C31.524 51.1694 31.6274 51.2005 31.726 51.2148C31.8222 51.2292 31.8727 51.2626 31.8727 51.3128C31.8727 51.5375 31.8462 51.7574 31.7957 51.9774C31.7452 52.1949 31.6514 52.3933 31.5191 52.5726C31.3869 52.7495 31.2041 52.8929 30.9756 53.0005C30.7399 53.1104 30.4465 53.163 30.0882 53.163Z" fill="#3AABE2"/>
<path fill-rule="evenodd" clip-rule="evenodd" d="M37.1755 44.4857C38.0437 44.4857 38.6834 44.6554 39.0923 44.9972C39.5011 45.3367 39.7055 45.7717 39.7055 46.3C39.7055 46.747 39.566 47.0888 39.2846 47.3207C39.0033 47.5526 38.5968 47.6721 38.0653 47.6721C37.921 47.6721 37.8249 47.6578 37.7743 47.6267C37.7238 47.5956 37.6974 47.5406 37.6974 47.4594C37.6974 47.3685 37.6902 47.2633 37.6733 47.1462C37.6589 47.0291 37.6228 46.9167 37.5651 46.8116C37.5098 46.704 37.4208 46.6155 37.3054 46.5438C37.1875 46.4721 37.0216 46.4363 36.8076 46.4363C36.5214 46.4363 36.2905 46.5056 36.1173 46.6418C35.9442 46.7781 35.8576 46.9502 35.8576 47.1534C35.8576 47.3661 35.9466 47.5382 36.127 47.6649C36.3049 47.7916 36.531 47.9111 36.8027 48.0235C37.0745 48.1358 37.3679 48.2506 37.6854 48.3677C38.0028 48.4848 38.2962 48.6402 38.568 48.8338C38.8397 49.0275 39.0634 49.2689 39.2438 49.5581C39.4217 49.8474 39.5131 50.2227 39.5131 50.6792C39.5131 51.4107 39.2534 52.0107 38.7315 52.4792C38.2096 52.9477 37.428 53.1796 36.3843 53.1796C36.0981 53.1796 35.7686 53.1557 35.3959 53.1103C35.0231 53.0649 34.6672 52.9931 34.3305 52.8975C33.9938 52.8019 33.71 52.6704 33.4791 52.5079C33.2483 52.3453 33.1328 52.1422 33.1328 51.8983C33.1328 51.8075 33.1496 51.6952 33.1857 51.5637C33.2218 51.4322 33.2771 51.3055 33.3541 51.1812C33.431 51.0593 33.5224 50.9541 33.6306 50.8681C33.7389 50.782 33.8687 50.739 34.0226 50.739C34.1453 50.739 34.2583 50.7701 34.3593 50.8298C34.4627 50.892 34.5806 50.9541 34.7201 51.0211C34.8572 51.088 35.0303 51.1501 35.2347 51.2123C35.4391 51.2744 35.7109 51.3031 36.0476 51.3031C36.3025 51.3031 36.531 51.2721 36.7306 51.2123C36.9302 51.1501 37.0288 51.0139 37.0288 50.8011C37.0288 50.6075 36.947 50.4521 36.7835 50.335C36.62 50.2179 36.4131 50.1079 36.163 50.0075C35.9129 49.9047 35.6412 49.7972 35.3502 49.68C35.0592 49.5629 34.7874 49.4075 34.5373 49.2139C34.2872 49.0203 34.0804 48.7741 33.9168 48.4753C33.7533 48.1765 33.6715 47.7868 33.6715 47.3088C33.6715 46.79 33.7773 46.3502 33.9866 45.9893C34.1958 45.6283 34.4676 45.3367 34.7994 45.112C35.1313 44.8873 35.5089 44.7271 35.9274 44.6315C36.3362 44.5359 36.7571 44.4857 37.1755 44.4857ZM44.7703 46.6968C44.7391 47.0841 44.7054 47.4641 44.6717 47.8394C44.6356 48.2147 44.602 48.5709 44.5731 48.9079C44.5418 49.2426 44.5202 49.5438 44.5034 49.8067C44.4889 50.0721 44.4793 50.2753 44.4793 50.4163C44.4793 50.6816 44.5106 50.8561 44.5707 50.9422C44.6332 51.0282 44.7342 51.0713 44.8785 51.0713C44.9916 51.0713 45.0878 51.0497 45.1695 51.0091C45.2513 50.9685 45.3283 50.9231 45.4004 50.8729C45.4726 50.8227 45.5351 50.7772 45.5928 50.7366C45.6481 50.696 45.7131 50.6745 45.7852 50.6745C45.8573 50.6745 45.9223 50.7151 45.9848 50.7964C46.0473 50.8776 46.0762 51.0665 46.0762 51.3605C46.0762 51.9199 45.9223 52.3621 45.6169 52.6872C45.309 53.0123 44.7823 53.1748 44.0368 53.1748C43.3009 53.1748 42.755 53.0051 42.4039 52.6633C42.0503 52.3238 41.8748 51.8027 41.8748 51.0999C41.8748 50.947 41.882 50.7677 41.8988 50.5597C41.9132 50.3517 41.9373 50.0792 41.9686 49.7446C41.9998 49.4099 42.0383 48.9964 42.084 48.5087C42.1297 48.0211 42.1778 47.4163 42.2307 46.6944H41.4178C41.3361 46.6944 41.288 46.6777 41.2711 46.6418C41.2567 46.606 41.2471 46.5534 41.2471 46.4817L41.2928 45.7048C41.3024 45.5733 41.3216 45.4419 41.3457 45.3152C41.3721 45.1885 41.4226 45.0737 41.4996 44.971C41.5766 44.8682 41.6872 44.7869 41.8291 44.7271C41.9734 44.665 42.161 44.6363 42.3966 44.6363C42.4688 44.4522 42.5506 44.2347 42.6419 43.9813C42.7333 43.7279 42.8271 43.4817 42.9185 43.2427C43.0099 43.0036 43.0989 42.8029 43.1879 42.6403C43.2744 42.4778 43.3538 42.3965 43.426 42.3965H43.8709C44.3014 42.3965 44.5972 42.528 44.7607 42.7933C44.9242 43.0586 45.006 43.3718 45.006 43.7399C45.006 43.9431 44.9916 44.2443 44.9603 44.6387H46.5716C46.7351 44.6387 46.8169 44.7104 46.8169 44.8514L46.7544 45.6737C46.7327 45.9797 46.6486 46.2259 46.5019 46.4124C46.3528 46.6012 46.0497 46.6944 45.588 46.6944H44.7703V46.6968ZM51.5835 53.1796C50.8789 53.1796 50.2921 53.0816 49.8279 52.8832C49.3613 52.6848 48.991 52.4123 48.7144 52.0681C48.4378 51.7215 48.243 51.3175 48.1324 50.8561C48.0194 50.3924 47.9641 49.8976 47.9641 49.3693C47.9641 48.7597 48.0386 48.1621 48.1853 47.5765C48.3344 46.9908 48.587 46.4697 48.9453 46.0132C49.3036 45.5566 49.7774 45.1861 50.3642 44.9064C50.9534 44.6267 51.6869 44.4881 52.5647 44.4881C53.8538 44.4881 54.7773 44.8012 55.3352 45.4251C55.8932 46.0514 56.1721 46.9263 56.1721 48.057C56.1721 48.3725 56.1481 48.7215 56.1024 49.1016C56.0567 49.484 55.9701 49.8617 55.8427 50.237C55.7152 50.6123 55.542 50.978 55.3208 51.3342C55.1019 51.6904 54.823 52.0059 54.4839 52.2808C54.1472 52.5557 53.7407 52.7732 53.2646 52.9358C52.7884 53.0983 52.228 53.1796 51.5835 53.1796ZM52.305 46.5151C51.9154 46.5151 51.6076 46.6132 51.3767 46.8116C51.1458 47.01 50.9727 47.249 50.8548 47.5287C50.737 47.8084 50.66 48.1024 50.6239 48.4131C50.5879 48.7239 50.571 48.9844 50.571 49.1996C50.571 49.8713 50.6793 50.3637 50.8933 50.6792C51.1073 50.9948 51.4152 51.1525 51.8144 51.1525C52.1727 51.1525 52.4661 51.0402 52.697 50.8179C52.9279 50.5932 53.1058 50.3255 53.2333 50.0099C53.3608 49.6944 53.4473 49.3645 53.493 49.0179C53.5387 48.6713 53.5628 48.3821 53.5628 48.1478C53.5628 47.6386 53.469 47.2394 53.279 46.9502C53.089 46.6586 52.7643 46.5151 52.305 46.5151ZM62.9372 48.2841C62.8747 48.2841 62.8074 48.2817 62.7304 48.2769C62.6534 48.2721 62.5789 48.2625 62.5092 48.2458C62.437 48.2315 62.3769 48.2099 62.324 48.1837C62.2735 48.1574 62.247 48.1263 62.247 48.0856C62.247 47.9542 62.2518 47.8323 62.2614 47.7199C62.2711 47.6076 62.2759 47.4904 62.2759 47.3685C62.2759 47.1438 62.2446 46.9622 62.1845 46.8187C62.1244 46.6753 61.9993 46.606 61.8165 46.606C61.5303 46.606 61.2923 46.7924 61.1023 47.163C60.9123 47.5335 60.792 48.0904 60.7415 48.8338C60.7223 49.1589 60.6934 49.5271 60.6573 49.9406C60.6213 50.3517 60.5876 50.7486 60.5587 51.131C60.5275 51.5111 60.5034 51.8505 60.4818 52.1446C60.4601 52.4386 60.4505 52.6322 60.4505 52.723C60.4505 52.8258 60.4144 52.8999 60.3423 52.9525C60.2702 53.0027 60.1932 53.029 60.1114 53.029H59.5583C59.2408 53.029 58.9835 52.9955 58.7839 52.931C58.5843 52.8641 58.4256 52.7708 58.3077 52.6489C58.1899 52.527 58.1081 52.3764 58.0624 52.1995C58.0167 52.0226 57.9927 51.8147 57.9927 51.5828C57.9927 51.4298 57.9999 51.2147 58.0167 50.935C58.0312 50.6553 58.06 50.2681 58.1009 49.7757C58.1418 49.2832 58.1899 48.657 58.2476 47.8992C58.3029 47.1414 58.3727 46.2044 58.4544 45.0857C58.4761 44.7917 58.5819 44.6435 58.7767 44.6435H59.3755C59.6617 44.6435 59.9022 44.6745 60.097 44.7343C60.2918 44.7964 60.4505 44.8801 60.5732 44.9853C60.6958 45.0929 60.7848 45.2172 60.8425 45.3582C60.8978 45.5016 60.9363 45.6474 60.958 45.8004C61.0806 45.5662 61.2273 45.3654 61.3957 45.198C61.564 45.0307 61.742 44.8921 61.9247 44.7869C62.1099 44.6793 62.2975 44.6028 62.4923 44.5574C62.6871 44.512 62.8651 44.4881 63.0286 44.4881C63.2234 44.4881 63.4206 44.5239 63.6202 44.5957C63.8198 44.6674 64.0002 44.7725 64.1637 44.916C64.3273 45.0594 64.4571 45.2411 64.5558 45.4658C64.6519 45.6905 64.7025 45.9534 64.7025 46.2594C64.7025 46.5343 64.6616 46.7924 64.5798 47.0363C64.498 47.2801 64.3802 47.4952 64.2263 47.6841C64.0724 47.8729 63.8872 48.0187 63.6659 48.1263C63.4447 48.2315 63.2018 48.2841 62.9372 48.2841ZM68.9207 46.0419C68.9207 46.2761 68.9063 46.5534 68.875 46.8737C68.8438 47.194 68.8101 47.5143 68.7764 47.8347C68.7404 48.155 68.7067 48.4538 68.6778 48.7334C68.6466 49.0131 68.6321 49.2283 68.6321 49.3812C68.6321 49.7685 68.7259 50.0553 68.9159 50.2418C69.1059 50.4306 69.3368 50.5239 69.6133 50.5239C70.0943 50.5239 70.4767 50.2753 70.7629 49.7757C71.0491 49.2785 71.2271 48.6163 71.2992 47.794L71.5445 44.9423C71.5541 44.8299 71.5926 44.751 71.6599 44.7056C71.7273 44.6602 71.7994 44.6363 71.8812 44.6363H72.4343C72.6484 44.6363 72.8504 44.653 73.0404 44.6889C73.2304 44.7247 73.3963 44.7917 73.5382 44.8873C73.6825 44.9829 73.7931 45.1144 73.8749 45.2769C73.9567 45.4395 73.9975 45.6474 73.9975 45.9032C73.9975 46.006 73.9903 46.1948 73.9735 46.4745C73.9591 46.7542 73.9326 47.1558 73.8965 47.6793C73.8605 48.2028 73.8124 48.8649 73.7498 49.6609C73.6873 50.4593 73.6176 51.4322 73.5358 52.582C73.4853 53.2537 73.3338 53.8107 73.0837 54.2529C72.8336 54.6951 72.5185 55.0465 72.1409 55.3047C71.7634 55.5628 71.3377 55.7445 70.8663 55.8449C70.395 55.9477 69.914 55.9979 69.4234 55.9979C68.9015 55.9979 68.4229 55.9525 67.9876 55.8616C67.5523 55.7708 67.1771 55.6441 66.8597 55.4792C66.5422 55.3166 66.2945 55.1278 66.1166 54.915C65.9386 54.7023 65.8472 54.4728 65.8472 54.229C65.8472 54.0354 65.8905 53.868 65.9771 53.7246C66.0636 53.5812 66.1791 53.4664 66.3234 53.3732C66.4677 53.2824 66.6336 53.2131 66.8212 53.1676C67.0112 53.1222 67.2084 53.0983 67.4128 53.0983C67.5162 53.0983 67.5884 53.1485 67.6341 53.2513C67.6798 53.3541 67.7519 53.4664 67.8481 53.5955C67.9443 53.7222 68.1006 53.837 68.3171 53.9397C68.5311 54.0425 68.8534 54.0927 69.2839 54.0927C69.6614 54.0927 69.9693 54.0019 70.205 53.8178C70.4406 53.6338 70.621 53.4019 70.7485 53.1174C70.8759 52.833 70.9601 52.5222 71.001 52.1876C71.0419 51.8529 71.0635 51.5326 71.0635 51.2266C70.9 51.5111 70.7172 51.743 70.52 51.9199C70.3204 52.0967 70.1136 52.2354 69.8995 52.331C69.6855 52.4266 69.469 52.4912 69.255 52.5222C69.041 52.5533 68.8365 52.5677 68.6418 52.5677C68.2642 52.5677 67.9179 52.5175 67.6052 52.4147C67.2926 52.3119 67.0256 52.1469 66.7996 51.9199C66.5735 51.6904 66.4003 51.394 66.2777 51.0282C66.155 50.6625 66.0925 50.2203 66.0925 49.7016C66.0925 49.5079 66.1021 49.2522 66.1238 48.9318C66.143 48.6115 66.1695 48.2506 66.2007 47.849C66.232 47.4474 66.2657 47.0124 66.2993 46.5462C66.3354 46.0777 66.3739 45.5996 66.4148 45.112C66.4364 44.7965 66.5783 44.6387 66.8453 44.6387H67.3359C67.6629 44.6387 67.9299 44.6698 68.1343 44.7295C68.3387 44.7917 68.4999 44.8801 68.6177 44.9972C68.7355 45.1144 68.8149 45.2626 68.8558 45.4395C68.8991 45.6187 68.9207 45.8195 68.9207 46.0419Z" fill="white"/>
</g>
<defs>
<clipPath id="clip0_100_63">
<rect width="74" height="56" fill="white"/>
</clipPath>
</defs>
</svg>
