<svg width="36" height="36" viewBox="0 0 36 36" fill="none" xmlns="http://www.w3.org/2000/svg">
<g filter="url(#filter0_i_700_13)">
<rect width="36" height="36" rx="18" fill="white"/>
</g>
<path d="M26.3077 23.2753C26.3077 23.5753 26.241 23.8837 26.0993 24.1837C25.9577 24.4837 25.7744 24.767 25.5327 25.0337C25.1244 25.4837 24.6743 25.8087 24.166 26.017C23.666 26.2253 23.1244 26.3337 22.541 26.3337C21.691 26.3337 20.7827 26.1337 19.8243 25.7253C18.866 25.317 17.9077 24.767 16.9577 24.0753C15.9993 23.3753 15.091 22.6003 14.2243 21.742C13.366 20.8753 12.591 19.967 11.8993 19.017C11.216 18.067 10.666 17.117 10.266 16.1753C9.86602 15.2253 9.66602 14.317 9.66602 13.4503C9.66602 12.8837 9.76602 12.342 9.96602 11.842C10.166 11.3337 10.4827 10.867 10.9243 10.4503C11.4577 9.92533 12.041 9.66699 12.6577 9.66699C12.891 9.66699 13.1243 9.71699 13.3327 9.81699C13.5493 9.91699 13.741 10.067 13.891 10.2837L15.8243 13.0087C15.9743 13.217 16.0827 13.4087 16.1577 13.592C16.2327 13.767 16.2743 13.942 16.2743 14.1003C16.2743 14.3003 16.216 14.5003 16.0993 14.692C15.991 14.8837 15.8327 15.0837 15.6327 15.2837L14.9993 15.942C14.9077 16.0337 14.866 16.142 14.866 16.2753C14.866 16.342 14.8743 16.4003 14.891 16.467C14.916 16.5337 14.941 16.5837 14.9577 16.6337C15.1077 16.9087 15.366 17.267 15.7327 17.7003C16.1077 18.1337 16.5077 18.5753 16.941 19.017C17.391 19.4587 17.8243 19.867 18.266 20.242C18.6993 20.6087 19.0577 20.8587 19.341 21.0087C19.3827 21.0253 19.4327 21.0503 19.491 21.0753C19.5577 21.1003 19.6243 21.1087 19.6993 21.1087C19.841 21.1087 19.9493 21.0587 20.041 20.967L20.6743 20.342C20.8827 20.1337 21.0827 19.9753 21.2743 19.8753C21.466 19.7587 21.6577 19.7003 21.866 19.7003C22.0243 19.7003 22.191 19.7337 22.3743 19.8087C22.5577 19.8837 22.7494 19.992 22.9577 20.1337L25.716 22.092C25.9327 22.242 26.0827 22.417 26.1743 22.6253C26.2577 22.8337 26.3077 23.042 26.3077 23.2753Z" fill="#393A41" stroke="#393A41" stroke-miterlimit="10"/>
<defs>
<filter id="filter0_i_700_13" x="0" y="0" width="40" height="39" filterUnits="userSpaceOnUse" color-interpolation-filters="sRGB">
<feFlood flood-opacity="0" result="BackgroundImageFix"/>
<feBlend mode="normal" in="SourceGraphic" in2="BackgroundImageFix" result="shape"/>
<feColorMatrix in="SourceAlpha" type="matrix" values="0 0 0 0 0 0 0 0 0 0 0 0 0 0 0 0 0 0 127 0" result="hardAlpha"/>
<feOffset dx="4" dy="3"/>
<feGaussianBlur stdDeviation="6.5"/>
<feComposite in2="hardAlpha" operator="arithmetic" k2="-1" k3="1"/>
<feColorMatrix type="matrix" values="0 0 0 0 1 0 0 0 0 1 0 0 0 0 1 0 0 0 0.25 0"/>
<feBlend mode="normal" in2="shape" result="effect1_innerShadow_700_13"/>
</filter>
</defs>
</svg>
