<svg width="20" height="17" viewBox="0 0 20 17" fill="none" xmlns="http://www.w3.org/2000/svg">
<path d="M10.0001 13.5833C11.0417 13.5833 11.9273 13.2189 12.6567 12.49C13.3862 11.7611 13.7506 10.8756 13.7501 9.83333C13.7501 8.79167 13.3856 7.90639 12.6567 7.1775C11.9279 6.44861 11.0423 6.08389 10.0001 6.08333C8.95841 6.08333 8.07314 6.44806 7.34425 7.1775C6.61536 7.90694 6.25064 8.79222 6.25008 9.83333C6.25008 10.875 6.6148 11.7606 7.34425 12.49C8.07369 13.2194 8.95897 13.5839 10.0001 13.5833ZM10.0001 11.9167C9.41675 11.9167 8.92369 11.7153 8.52091 11.3125C8.11814 10.9097 7.91675 10.4167 7.91675 9.83333C7.91675 9.25 8.11814 8.75694 8.52091 8.35417C8.92369 7.95139 9.41675 7.75 10.0001 7.75C10.5834 7.75 11.0765 7.95139 11.4792 8.35417C11.882 8.75694 12.0834 9.25 12.0834 9.83333C12.0834 10.4167 11.882 10.9097 11.4792 11.3125C11.0765 11.7153 10.5834 11.9167 10.0001 11.9167ZM3.33341 16.5C2.87508 16.5 2.48286 16.3369 2.15675 16.0108C1.83064 15.6847 1.6673 15.2922 1.66675 14.8333V4.83333C1.66675 4.375 1.83008 3.98278 2.15675 3.65667C2.48341 3.33056 2.87564 3.16722 3.33341 3.16667H5.95841L7.50008 1.5H12.5001L14.0417 3.16667H16.6667C17.1251 3.16667 17.5176 3.33 17.8442 3.65667C18.1709 3.98333 18.334 4.37556 18.3334 4.83333V14.8333C18.3334 15.2917 18.1704 15.6842 17.8442 16.0108C17.5181 16.3375 17.1256 16.5006 16.6667 16.5H3.33341Z" fill="white"/>
</svg>
