<svg width="17" height="17" viewBox="0 0 17 17" fill="none" xmlns="http://www.w3.org/2000/svg">
<g clip-path="url(#clip0_445_1256)">
<path d="M8.95342 3.83916L1.66467 11.1279C1.39609 11.397 1.22635 11.749 1.183 12.1267L0.892584 14.6767C0.873653 14.856 0.89276 15.0373 0.948659 15.2087C1.00456 15.3801 1.09599 15.5379 1.21698 15.6716C1.33798 15.8053 1.48581 15.9119 1.65083 15.9846C1.81586 16.0573 1.99435 16.0943 2.17467 16.0933H2.32342L4.87342 15.8029C5.24962 15.7594 5.60082 15.5925 5.87217 15.3283L13.1609 8.0325L8.95342 3.83916ZM15.6259 3.22291L13.7772 1.37416C13.6225 1.21889 13.4387 1.09569 13.2363 1.01162C13.0339 0.927553 12.8169 0.884277 12.5978 0.884277C12.3786 0.884277 12.1616 0.927553 11.9593 1.01162C11.7569 1.09569 11.5731 1.21889 11.4184 1.37416L9.70425 3.08833L13.9118 7.29583L15.6259 5.58166C15.7812 5.42701 15.9044 5.24321 15.9885 5.04083C16.0725 4.83844 16.1158 4.62144 16.1158 4.40229C16.1158 4.18314 16.0725 3.96614 15.9885 3.76375C15.9044 3.56137 15.7812 3.37757 15.6259 3.22291Z" fill="white"/>
</g>
<defs>
<clipPath id="clip0_445_1256">
<rect width="17" height="17" fill="white"/>
</clipPath>
</defs>
</svg>
