<svg width="17" height="17" viewBox="0 0 17 17" fill="none" xmlns="http://www.w3.org/2000/svg">
<path d="M13.4584 14.1666H3.54175V14.8749C3.54175 15.0628 3.46712 15.2429 3.33428 15.3758C3.20144 15.5086 3.02128 15.5833 2.83341 15.5833H2.12508C1.93722 15.5833 1.75705 15.5086 1.62421 15.3758C1.49138 15.2429 1.41675 15.0628 1.41675 14.8749V8.49992L3.19679 3.75267C3.29803 3.48258 3.47931 3.24982 3.71639 3.08553C3.95347 2.92123 4.23505 2.83322 4.5235 2.83325H12.4767C12.7651 2.83322 13.0467 2.92123 13.2838 3.08553C13.5209 3.24982 13.7021 3.48258 13.8034 3.75267L15.5834 8.49992V14.8749C15.5834 15.0628 15.5088 15.2429 15.376 15.3758C15.2431 15.5086 15.0629 15.5833 14.8751 15.5833H14.1667C13.9789 15.5833 13.7987 15.5086 13.6659 15.3758C13.533 15.2429 13.4584 15.0628 13.4584 14.8749V14.1666ZM2.92975 8.49992H14.0704L12.4767 4.24992H4.5235L2.92975 8.49992ZM4.60425 12.0416C4.88604 12.0416 5.15629 11.9296 5.35555 11.7304C5.55481 11.5311 5.66675 11.2609 5.66675 10.9791C5.66675 10.6973 5.55481 10.427 5.35555 10.2278C5.15629 10.0285 4.88604 9.91659 4.60425 9.91659C4.32246 9.91659 4.0522 10.0285 3.85295 10.2278C3.65369 10.427 3.54175 10.6973 3.54175 10.9791C3.54175 11.2609 3.65369 11.5311 3.85295 11.7304C4.0522 11.9296 4.32246 12.0416 4.60425 12.0416ZM12.3959 12.0416C12.6777 12.0416 12.948 11.9296 13.1472 11.7304C13.3465 11.5311 13.4584 11.2609 13.4584 10.9791C13.4584 10.6973 13.3465 10.427 13.1472 10.2278C12.948 10.0285 12.6777 9.91659 12.3959 9.91659C12.1141 9.91659 11.8439 10.0285 11.6446 10.2278C11.4454 10.427 11.3334 10.6973 11.3334 10.9791C11.3334 11.2609 11.4454 11.5311 11.6446 11.7304C11.8439 11.9296 12.1141 12.0416 12.3959 12.0416Z" fill="white"/>
</svg>
