<svg width="17" height="17" viewBox="0 0 17 17" fill="none" xmlns="http://www.w3.org/2000/svg">
<g clip-path="url(#clip0_445_1260)">
<path d="M6.84128 10.6567C7.11646 10.6567 7.33954 10.4336 7.33954 10.1584C7.33954 9.88324 7.11646 9.66016 6.84128 9.66016C6.5661 9.66016 6.34302 9.88324 6.34302 10.1584C6.34302 10.4336 6.5661 10.6567 6.84128 10.6567Z" fill="white"/>
<path d="M8.25136 5.22538L7.33969 6.13586H3.31898C3.09609 6.13586 2.90145 6.2838 2.84012 6.49695L0.0195142 16.3642C-0.0301193 16.5385 0.0175541 16.7263 0.146056 16.8538C0.278246 16.986 0.470568 17.0295 0.635614 16.9803L10.5029 14.1597C10.7161 14.0984 10.864 13.9038 10.864 13.6809V9.66017L11.7745 8.7485L8.25136 5.22538ZM7.89835 11.2155C7.49241 11.6215 6.85568 11.8019 6.20809 11.4964L3.66937 14.0352C3.47472 14.2298 3.15935 14.2298 2.9647 14.0352C2.77005 13.8405 2.77005 13.5251 2.9647 13.3305L5.50332 10.7919C5.24149 10.2372 5.32624 9.55961 5.78434 9.10151C6.36639 8.51947 7.3163 8.51947 7.89835 9.10151C8.48136 9.68452 8.48136 10.6325 7.89835 11.2155ZM16.8538 5.08728L13.5359 8.39655C13.3412 8.59073 13.026 8.59049 12.8316 8.39608L8.60361 4.16813C8.4092 3.97372 8.40897 3.65854 8.60315 3.46386L11.9124 0.145892C12.1048 -0.0461309 12.421 -0.0511142 12.618 0.145892L16.8538 4.38168C17.0508 4.57865 17.0462 4.89493 16.8538 5.08728Z" fill="white"/>
</g>
<defs>
<clipPath id="clip0_445_1260">
<rect width="17" height="17" fill="white"/>
</clipPath>
</defs>
</svg>
