<svg width="36" height="36" viewBox="0 0 36 36" fill="none" xmlns="http://www.w3.org/2000/svg">
<g filter="url(#filter0_i_408_62)">
<rect y="-1.52588e-05" width="36" height="36" rx="18" fill="#5DA8E0"/>
</g>
<path fill-rule="evenodd" clip-rule="evenodd" d="M25.7192 10.3229C25.2918 10.5044 24.137 10.9964 23.153 11.4164C22.1691 11.8363 21.2677 12.2195 21.1501 12.2681C21.0324 12.3166 19.9211 12.7893 18.6804 13.3185C16.4015 14.2906 12.665 15.8812 10.0756 16.9813C9.30012 17.3107 8.66595 17.59 8.66626 17.6018C8.66657 17.6136 9.17847 17.8232 9.80385 18.0676C10.4292 18.312 11.2209 18.6229 11.5632 18.7585C11.9054 18.8941 12.3517 19.069 12.5549 19.1472L12.9244 19.2892L14.022 22.0857C14.6257 23.6237 15.127 24.9 15.1359 24.9218C15.1449 24.9436 15.7974 24.3054 16.5859 23.5037C17.3745 22.702 18.0338 22.046 18.0511 22.046C18.0684 22.046 18.6808 22.5321 19.4121 23.1261C20.1434 23.7202 20.9949 24.4118 21.3045 24.6631C21.614 24.9145 22.1215 25.3275 22.4324 25.5809C22.7738 25.8593 23.007 26.0242 23.0216 25.9974C23.0349 25.973 23.0929 25.73 23.1507 25.4573C23.2083 25.1846 23.315 24.6937 23.3876 24.3664C23.4603 24.0392 24.1595 20.8263 24.9415 17.2266C25.7235 13.6269 26.3966 10.5301 26.4372 10.3448C26.4778 10.1594 26.5077 10.0044 26.5037 10.0003C26.4997 9.99622 26.1467 10.1414 25.7192 10.3229ZM21.227 14.7605C21.0976 14.8845 19.6992 16.1866 17.6887 18.0551C16.7796 18.9 16.0066 19.6304 15.971 19.6783C15.9353 19.7261 15.8239 20.0865 15.7234 20.4792C15.2723 22.2419 15.2511 22.3123 15.2033 22.2047C15.1791 22.1501 14.8975 21.4364 14.5775 20.6186C14.1239 19.4594 14.0062 19.1217 14.0434 19.0866C14.0697 19.0618 14.59 18.7387 15.1996 18.3686C15.8092 17.9986 17.1306 17.1955 18.1359 16.5839C21.1701 14.7384 21.2855 14.6686 21.3048 14.6684C21.315 14.6683 21.28 14.7097 21.227 14.7605Z" fill="white"/>
<defs>
<filter id="filter0_i_408_62" x="0" y="-1.52588e-05" width="40" height="39" filterUnits="userSpaceOnUse" color-interpolation-filters="sRGB">
<feFlood flood-opacity="0" result="BackgroundImageFix"/>
<feBlend mode="normal" in="SourceGraphic" in2="BackgroundImageFix" result="shape"/>
<feColorMatrix in="SourceAlpha" type="matrix" values="0 0 0 0 0 0 0 0 0 0 0 0 0 0 0 0 0 0 127 0" result="hardAlpha"/>
<feOffset dx="4" dy="3"/>
<feGaussianBlur stdDeviation="6.5"/>
<feComposite in2="hardAlpha" operator="arithmetic" k2="-1" k3="1"/>
<feColorMatrix type="matrix" values="0 0 0 0 1 0 0 0 0 1 0 0 0 0 1 0 0 0 0.25 0"/>
<feBlend mode="normal" in2="shape" result="effect1_innerShadow_408_62"/>
</filter>
</defs>
</svg>
