<svg width="36" height="36" viewBox="0 0 36 36" fill="none" xmlns="http://www.w3.org/2000/svg">
<g filter="url(#filter0_i_608_94)">
<circle cx="18" cy="18" r="18" fill="#1A4BAA"/>
</g>
<g clip-path="url(#clip0_608_94)">
<path d="M23.2998 17.7989C23.5131 17.5232 23.6824 17.3019 23.8075 17.135C24.7082 15.9375 25.0986 15.1725 24.979 14.839L24.932 14.7609C24.9008 14.714 24.8199 14.6709 24.6899 14.6319C24.5597 14.5929 24.3931 14.5867 24.1901 14.6124L21.941 14.6283C21.8889 14.6231 21.8364 14.6243 21.7847 14.6319C21.7326 14.6398 21.6988 14.6478 21.6831 14.6553C21.6674 14.6633 21.6545 14.6697 21.6442 14.6748L21.613 14.6983C21.5869 14.7138 21.5583 14.7412 21.5271 14.7804C21.4959 14.8195 21.4697 14.8649 21.449 14.9171C21.2043 15.5471 20.9258 16.1329 20.6133 16.6744C20.4207 16.9972 20.2436 17.2773 20.0824 17.5139C19.9209 17.751 19.7856 17.9253 19.6762 18.0371C19.5669 18.149 19.4679 18.239 19.3795 18.3064C19.2908 18.3744 19.2232 18.4028 19.1765 18.3925C19.1321 18.3828 19.0878 18.3723 19.0437 18.3611C18.9708 18.3144 18.9121 18.2507 18.868 18.1699C18.8237 18.0894 18.7938 17.9877 18.7781 17.8653C18.7626 17.7431 18.7533 17.6375 18.7509 17.5489C18.7481 17.4604 18.7495 17.3356 18.7548 17.174C18.76 17.0125 18.7626 16.9034 18.7626 16.846C18.7626 16.6484 18.7666 16.4335 18.7744 16.2017C18.7821 15.9701 18.7887 15.7865 18.7938 15.6511C18.799 15.5159 18.8016 15.3726 18.8016 15.2215C18.8016 15.0708 18.7925 14.9521 18.7741 14.8661C18.7557 14.7802 18.7283 14.6964 18.6922 14.6162C18.6557 14.5357 18.6024 14.4731 18.532 14.429C18.4617 14.3846 18.3746 14.3496 18.2704 14.3234C17.9943 14.2608 17.6429 14.2274 17.2161 14.2219C16.2476 14.2119 15.6254 14.2743 15.3495 14.4095C15.2402 14.4669 15.1412 14.5448 15.0528 14.6438C14.959 14.7585 14.946 14.8211 15.0138 14.8311C15.3263 14.878 15.5474 14.9901 15.6775 15.167L15.7245 15.2607C15.7608 15.3286 15.7972 15.4483 15.8338 15.62C15.8702 15.7918 15.8936 15.9818 15.9041 16.1902C15.9302 16.5702 15.9302 16.8955 15.9041 17.1664C15.8781 17.4373 15.8535 17.648 15.83 17.7988C15.8065 17.9498 15.7714 18.0721 15.7246 18.1657C15.6777 18.2597 15.6465 18.3169 15.6308 18.3378C15.6151 18.3585 15.6022 18.3716 15.5919 18.3768C15.5246 18.4026 15.4531 18.4159 15.381 18.4158C15.308 18.4158 15.2195 18.3792 15.1154 18.3062C15.0112 18.2337 14.9031 18.1333 14.7914 18.0057C14.6793 17.8782 14.5532 17.6998 14.4125 17.4706C14.2719 17.2417 14.126 16.9708 13.9751 16.6585L13.8503 16.4319C13.7722 16.2864 13.6654 16.0741 13.53 15.7956C13.3947 15.5171 13.2748 15.2477 13.1708 14.9872C13.1291 14.878 13.0667 14.7947 12.9834 14.7373L12.9444 14.7138C12.9184 14.6931 12.8767 14.6709 12.8194 14.6476C12.7616 14.624 12.7013 14.607 12.6397 14.5967L10.4998 14.6123C10.2812 14.6123 10.1329 14.6619 10.0547 14.7609L10.0235 14.8076C10.0077 14.8339 10 14.8756 10 14.9327C10 14.9901 10.0157 15.0603 10.0469 15.1434C10.3594 15.8777 10.6991 16.5858 11.0661 17.2676C11.4332 17.9498 11.7521 18.4992 12.0228 18.9157C12.2935 19.3325 12.5695 19.7253 12.8507 20.095C13.132 20.4648 13.3181 20.7015 13.4091 20.8055C13.5001 20.9099 13.5717 20.988 13.6238 21.0399L13.819 21.2275C13.9439 21.3524 14.1275 21.502 14.3697 21.6765C14.6118 21.851 14.8798 22.0228 15.1741 22.1918C15.4682 22.3612 15.8107 22.4989 16.2011 22.6059C16.5915 22.7128 16.9715 22.7557 17.3413 22.7347H18.2394C18.4217 22.7191 18.5596 22.6621 18.6533 22.5629L18.6845 22.5239C18.7051 22.4929 18.7248 22.4446 18.7431 22.3796C18.7612 22.3146 18.7705 22.2428 18.7705 22.1649C18.7652 21.9411 18.7823 21.739 18.8212 21.5596C18.8602 21.3799 18.9045 21.2447 18.954 21.1533C19.0035 21.0624 19.0594 20.9855 19.1219 20.9229C19.1844 20.8603 19.2285 20.8229 19.2547 20.8098C19.2808 20.797 19.3017 20.7879 19.3172 20.7824C19.442 20.7408 19.5891 20.7812 19.7585 20.9034C19.9277 21.0261 20.0865 21.1768 20.235 21.3564C20.3832 21.5361 20.5615 21.7377 20.7699 21.9617C20.978 22.1855 21.1603 22.3521 21.3165 22.4615L21.4728 22.5555C21.5769 22.6177 21.7121 22.675 21.8789 22.7272C22.0455 22.7791 22.1914 22.7922 22.3162 22.7662L24.3155 22.7348C24.5133 22.7348 24.667 22.7024 24.7764 22.6372C24.8857 22.5725 24.9507 22.5005 24.9716 22.4225C24.9923 22.3444 24.9936 22.2563 24.9755 22.1571C24.9573 22.0583 24.939 21.9893 24.9209 21.9503C24.9026 21.9114 24.8857 21.8786 24.87 21.8527C24.6096 21.3842 24.1124 20.8087 23.3783 20.1267L23.3626 20.1112L23.3549 20.1033L23.3471 20.0957H23.3393C23.006 19.778 22.7952 19.5645 22.7067 19.455C22.5454 19.2471 22.5088 19.0362 22.5974 18.8227C22.6595 18.6608 22.8937 18.3197 23.2998 17.7989Z" fill="white"/>
</g>
<defs>
<filter id="filter0_i_608_94" x="0" y="0" width="36" height="36" filterUnits="userSpaceOnUse" color-interpolation-filters="sRGB">
<feFlood flood-opacity="0" result="BackgroundImageFix"/>
<feBlend mode="normal" in="SourceGraphic" in2="BackgroundImageFix" result="shape"/>
<feColorMatrix in="SourceAlpha" type="matrix" values="0 0 0 0 0 0 0 0 0 0 0 0 0 0 0 0 0 0 127 0" result="hardAlpha"/>
<feOffset/>
<feGaussianBlur stdDeviation="10.5"/>
<feComposite in2="hardAlpha" operator="arithmetic" k2="-1" k3="1"/>
<feColorMatrix type="matrix" values="0 0 0 0 1 0 0 0 0 1 0 0 0 0 1 0 0 0 0.32 0"/>
<feBlend mode="normal" in2="shape" result="effect1_innerShadow_608_94"/>
</filter>
<clipPath id="clip0_608_94">
<rect width="15" height="15" fill="white" transform="translate(10 11)"/>
</clipPath>
</defs>
</svg>
