<svg width="154" height="112" viewBox="0 0 154 112" fill="none" xmlns="http://www.w3.org/2000/svg">
<path d="M101.358 60.0924L101.239 59.9171C97.2752 54.1341 91.382 49.9512 84.615 48.1176C77.848 46.2841 70.6493 46.9197 64.3083 49.9107C57.9673 52.9016 52.8983 58.0525 50.0093 64.4406C47.1203 70.8287 46.6001 78.0367 48.5418 84.7735L49.3427 87.5307L44.7626 98.6526L44.7347 98.7999L56.7163 98.2504L59.0842 100.042C64.0122 103.773 69.9865 105.863 76.1653 106.018C82.3441 106.173 88.4158 104.386 93.5249 100.908C99.9455 96.5094 104.37 89.7544 105.837 82.1113C107.304 74.4682 105.694 66.5551 101.358 60.0924ZM94.057 92.2962C92.2332 94.2407 89.491 96.5202 86.5821 96.6714C81.4442 96.9296 74.1924 94.3244 66.4686 83.8946L66.3712 83.7642C59.6666 74.6165 58.7055 67.8698 60.138 62.9403C60.9627 60.1449 63.8281 58.0211 66.1526 56.7108C66.5217 56.5003 66.9352 56.3795 67.3597 56.3583C67.7841 56.3371 68.2076 56.4159 68.5959 56.5886C68.9843 56.7612 69.3265 57.0227 69.5951 57.3521C69.8638 57.6814 70.0511 58.0693 70.1422 58.4844L71.8557 65.9334C71.9695 66.4097 71.9516 66.9079 71.804 67.3747C71.6564 67.8416 71.3846 68.2595 71.0178 68.5838L69.1128 70.2585C68.7169 70.6061 68.4337 71.0637 68.2991 71.573C68.1646 72.0823 68.1849 72.6202 68.3574 73.1179C69.4082 75.5362 70.7839 77.8 72.4465 79.8465C74.182 82.3054 76.2708 84.4948 78.6456 86.3438C79.0878 86.6291 79.6053 86.7756 80.1315 86.7647C80.6577 86.7537 81.1686 86.5858 81.5986 86.2823L83.6942 84.8371C84.0938 84.523 84.5733 84.3272 85.0785 84.2718C85.5837 84.2164 86.0943 84.3036 86.5525 84.5236L93.3341 87.9456C93.7107 88.1378 94.0375 88.4149 94.2887 88.755C94.54 89.0951 94.7088 89.4889 94.7819 89.9053C94.855 90.3218 94.8303 90.7496 94.7099 91.1549C94.5894 91.5602 94.3765 91.932 94.0878 92.2409L94.057 92.2962Z" fill="white" fill-opacity="0.15"/>
<path d="M90.9621 2.14511C76.1934 -0.652527 60.9267 0.9921 47.0927 6.87102C33.2586 12.7499 21.4786 22.5991 13.2421 35.173C5.00571 47.7469 0.682841 62.4809 0.820197 77.5116C0.957552 92.5424 5.54896 107.195 14.0138 119.616C22.4786 132.037 34.4367 141.67 48.3759 147.295C62.3151 152.92 77.6092 154.285 92.3244 151.218C107.04 148.151 120.515 140.789 131.046 130.064C141.577 119.338 148.691 105.731 151.489 90.9622C155.241 71.158 150.971 50.6746 139.62 34.0181C128.269 17.3617 110.766 5.89663 90.9621 2.14511ZM113.663 84.7027C112.287 90.866 109.384 96.585 105.223 101.335C101.061 106.085 95.7728 109.713 89.8438 111.888C83.9147 114.062 77.5346 114.713 71.2887 113.78C65.0429 112.847 59.1313 110.36 54.0965 106.548L34.5873 107.453C34.2928 107.464 34.0017 107.386 33.7518 107.23C33.5019 107.074 33.3047 106.846 33.1858 106.576C33.1039 106.396 33.0602 106.2 33.0575 106.002C33.0548 105.803 33.0932 105.606 33.1702 105.423L40.7147 87.0872C39.0993 81.5669 38.7684 75.7501 39.7474 70.0822C40.7264 64.4143 42.9893 59.0456 46.3629 54.387C49.7365 49.7284 54.1313 45.9035 59.2109 43.2051C64.2905 40.5067 69.9202 39.0064 75.669 38.819C81.4178 38.6316 87.1332 39.7621 92.3778 42.1239C97.6223 44.4858 102.257 48.0163 105.927 52.4453C109.597 56.8743 112.204 62.0843 113.55 67.6764C114.896 73.2685 114.945 79.0945 113.693 84.7083L113.663 84.7027Z" fill="white" fill-opacity="0.15"/>
</svg>
