<svg width="36" height="36" viewBox="0 0 36 36" fill="none" xmlns="http://www.w3.org/2000/svg">
<g filter="url(#filter0_i_408_59)">
<rect width="36" height="36" rx="18" fill="#7DC76B"/>
</g>
<path fill-rule="evenodd" clip-rule="evenodd" d="M16.9257 9.02554C15.6871 9.21663 14.8259 9.48915 13.8152 10.0098C10.1447 11.9007 8.24828 16.1098 9.27873 20.0783C9.35758 20.382 9.54882 20.9313 9.70371 21.2991C9.85854 21.6668 9.9989 22.0469 10.0155 22.1437C10.0321 22.2404 9.81381 23.3727 9.53043 24.6598C9.24706 25.947 9.01787 27.0001 9.02115 27C9.02444 27 10.1199 26.7494 11.4555 26.4432L13.884 25.8865L14.4595 26.1309C16.6239 27.05 19.0853 27.0674 21.2864 26.1791C23.6544 25.2235 25.6 23.1559 26.394 20.7517C26.7495 19.6751 26.8378 19.1115 26.8378 17.9207C26.8378 16.367 26.5423 15.132 25.8576 13.8241C24.6287 11.477 22.4274 9.78392 19.8265 9.18545C19.2451 9.05165 17.4113 8.95058 16.9257 9.02554ZM19.7915 10.631C21.9397 11.1857 23.7698 12.7013 24.7267 14.7183C25.7097 16.7898 25.7175 19.0022 24.7491 21.0775C23.6211 23.4947 21.3876 25.0802 18.6779 25.3872C17.3804 25.5343 15.949 25.28 14.6659 24.6746L14.0829 24.3994L12.5113 24.7564C11.6468 24.9528 10.9251 25.0988 10.9073 25.0809C10.8896 25.063 11.0279 24.3466 11.2147 23.489L11.5545 21.9298L11.1815 21.1745C10.9733 20.753 10.7261 20.1083 10.6219 19.7154C10.456 19.0899 10.4354 18.8863 10.4369 17.8855C10.4384 16.9008 10.4613 16.6735 10.6193 16.0762C11.1786 13.9613 12.6514 12.1363 14.5491 11.2067C15.8233 10.5826 16.7577 10.3787 18.1489 10.4214C18.8611 10.4433 19.264 10.4947 19.7915 10.631ZM14.5623 14.256C13.8131 14.9514 13.6508 16.0277 14.1305 17.1197C14.5536 18.0831 15.8573 19.6668 16.8089 20.3734C17.8016 21.1104 19.2616 21.671 20.2109 21.6796C20.7256 21.6843 20.8063 21.6647 21.2245 21.4333C21.8381 21.0936 22.0658 20.7648 22.115 20.1473L22.1521 19.6826L21.2165 19.224C20.7018 18.9718 20.2138 18.7653 20.1319 18.7653C20.0407 18.7653 19.9077 18.8677 19.7892 19.0292C19.461 19.4766 19.1053 19.821 18.9715 19.821C18.5989 19.821 17.31 18.9855 16.798 18.412C16.4676 18.0421 15.9121 17.246 15.9121 17.1425C15.9121 17.1105 16.0694 16.9033 16.2616 16.6821C16.4896 16.4198 16.6111 16.2161 16.6111 16.0964C16.6111 15.8738 15.9669 14.2976 15.8 14.1119C15.709 14.0106 15.5837 13.9792 15.2707 13.9792C14.8905 13.9792 14.8388 13.9994 14.5623 14.256Z" fill="white"/>
<defs>
<filter id="filter0_i_408_59" x="0" y="0" width="40" height="39" filterUnits="userSpaceOnUse" color-interpolation-filters="sRGB">
<feFlood flood-opacity="0" result="BackgroundImageFix"/>
<feBlend mode="normal" in="SourceGraphic" in2="BackgroundImageFix" result="shape"/>
<feColorMatrix in="SourceAlpha" type="matrix" values="0 0 0 0 0 0 0 0 0 0 0 0 0 0 0 0 0 0 127 0" result="hardAlpha"/>
<feOffset dx="4" dy="3"/>
<feGaussianBlur stdDeviation="6.5"/>
<feComposite in2="hardAlpha" operator="arithmetic" k2="-1" k3="1"/>
<feColorMatrix type="matrix" values="0 0 0 0 1 0 0 0 0 1 0 0 0 0 1 0 0 0 0.25 0"/>
<feBlend mode="normal" in2="shape" result="effect1_innerShadow_408_59"/>
</filter>
</defs>
</svg>
