<svg width="35" height="35" viewBox="0 0 35 35" fill="none" xmlns="http://www.w3.org/2000/svg">
<g clip-path="url(#clip0_30_16544)">
<path d="M0.683594 34.3916L3.0625 25.7168C1.59277 23.1807 0.820313 20.2959 0.820313 17.3496C0.827148 8.11426 8.33984 0.608398 17.5684 0.608398C22.0459 0.608398 26.2568 2.35156 29.415 5.5166C32.5801 8.68164 34.3232 12.8857 34.3164 17.3633C34.3096 26.5918 26.7969 34.1045 17.5684 34.1045H17.5615C14.7588 34.1045 12.0039 33.4004 9.55664 32.0674L0.683594 34.3916Z" fill="url(#paint0_linear_30_16544)"/>
<path d="M0.0751953 35L2.53613 26.0107C1.01855 23.3857 0.225586 20.3984 0.225586 17.3428C0.225586 7.7793 8.01172 0 17.5752 0C22.2168 0 26.5713 1.81152 29.8457 5.08594C33.1201 8.36719 34.9248 12.7217 34.9248 17.3564C34.918 26.9199 27.1387 34.6992 17.5752 34.6992H17.5684C14.6631 34.6992 11.8125 33.9678 9.27637 32.5869L0.0751953 35ZM9.70019 29.4492L10.2266 29.7637C12.4414 31.0762 14.9775 31.7734 17.5684 31.7734H17.5752C25.5254 31.7734 31.9922 25.3066 31.9922 17.3564C31.9922 13.5078 30.4951 9.88477 27.7744 7.15723C25.0537 4.42969 21.4307 2.93262 17.582 2.93262C9.625 2.93262 3.1582 9.39941 3.1582 17.3496C3.1582 20.0703 3.91699 22.7227 5.35938 25.0195L5.70117 25.5664L4.24512 30.8848L9.70019 29.4492Z" fill="url(#paint1_linear_30_16544)"/>
<path fill-rule="evenodd" clip-rule="evenodd" d="M13.2344 10.0901C12.9063 9.36548 12.5645 9.35181 12.2568 9.33813C12.0039 9.32446 11.7168 9.3313 11.4229 9.3313C11.1357 9.3313 10.6641 9.44067 10.2676 9.87134C9.87109 10.302 8.75 11.3547 8.75 13.4875C8.75 15.6204 10.3018 17.6848 10.5205 17.9719C10.7393 18.259 13.5215 22.7776 17.9238 24.5139C21.5879 25.9563 22.333 25.6692 23.126 25.6008C23.9189 25.5325 25.6895 24.5549 26.0518 23.5432C26.4141 22.5315 26.4141 21.6633 26.3047 21.4856C26.1953 21.3079 25.9082 21.1985 25.4707 20.9797C25.04 20.761 22.9072 19.7151 22.5107 19.5715C22.1143 19.428 21.8272 19.3528 21.5332 19.7903C21.2461 20.2209 20.4121 21.1985 20.1592 21.4856C19.9063 21.7727 19.6533 21.8137 19.2227 21.595C18.792 21.3762 17.3906 20.9182 15.7363 19.4416C14.4443 18.2932 13.5762 16.8713 13.3232 16.4407C13.0703 16.01 13.2959 15.7708 13.5146 15.5588C13.7061 15.3674 13.9453 15.053 14.1641 14.8C14.3828 14.5471 14.4512 14.3694 14.5947 14.0754C14.7383 13.7883 14.6699 13.5354 14.5605 13.3167C14.4648 13.0911 13.624 10.9514 13.2344 10.0901Z" fill="white"/>
</g>
<defs>
<linearGradient id="paint0_linear_30_16544" x1="17.4999" y1="34.3944" x2="17.4999" y2="0.606074" gradientUnits="userSpaceOnUse">
<stop stop-color="#20B038"/>
<stop offset="1" stop-color="#60D66A"/>
</linearGradient>
<linearGradient id="paint1_linear_30_16544" x1="17.5" y1="35" x2="17.5" y2="0" gradientUnits="userSpaceOnUse">
<stop stop-color="#F9F9F9"/>
<stop offset="1" stop-color="white"/>
</linearGradient>
<clipPath id="clip0_30_16544">
<rect width="35" height="35" fill="white"/>
</clipPath>
</defs>
</svg>
