<svg width="12" height="15" viewBox="0 0 12 15" fill="none" xmlns="http://www.w3.org/2000/svg">
<g clip-path="url(#clip0_30_16031)">
<path d="M6 0C2.6862 0 0 2.6862 0 6C0 7.6563 0.6711 9.156 1.7565 10.2417C2.8422 11.328 5.4 12.9 5.55 14.55C5.57249 14.7974 5.7516 15 6 15C6.2484 15 6.42751 14.7974 6.45 14.55C6.6 12.9 9.1578 11.328 10.2435 10.2417C11.3289 9.156 12 7.6563 12 6C12 2.6862 9.3138 0 6 0Z" fill="#FF4433"/>
<path d="M5.9999 8.10039C7.1597 8.10039 8.09988 7.16018 8.09988 6.00039C8.09988 4.84059 7.1597 3.90039 5.9999 3.90039C4.84011 3.90039 3.8999 4.84059 3.8999 6.00039C3.8999 7.16018 4.84011 8.10039 5.9999 8.10039Z" fill="white"/>
</g>
<defs>
<clipPath id="clip0_30_16031">
<rect width="12" height="15" fill="white"/>
</clipPath>
</defs>
</svg>
